# xmcd
#
# Track frame offsets: 
#        150
#        7831
#        22234
#        38197
#        61677
#        76289
#        102409
#        108481
#        128108
#        136666
#        154120
#        178874
#        201511
#        219689
#
# Disc length: 3074 seconds
#
# Revision: 0
# Processed by: cddbd v1.5.2PL0 Copyright (c) Steve Scherf et al.
# Submitted via: ExactAudioCopy v1.3
#
DISCID=be0c000e
DTITLE=Dirty Deep - Tillandsia
DYEAR=2018
DGENRE=Blues Rock
TTITLE0=Road Dawgs
TTITLE1=Sunday Church
TTITLE2=Shake It!
TTITLE3=Strawberry Lips
TTITLE4=Wild Animal
TTITLE5=You've Got To Learn
TTITLE6=Hipbreak
TTITLE7=Hangin' On An Oak Tree
TTITLE8=Confessionnal Hole
TTITLE9=I Want To Miss You
TTITLE10=By the River
TTITLE11=Bottletree
TTITLE12=Last Call To Heaven
TTITLE13=Whiskey Song
EXTD=
EXTT0=
EXTT1=
EXTT2=
EXTT3=
EXTT4=
EXTT5=
EXTT6=
EXTT7=
EXTT8=
EXTT9=
EXTT10=
EXTT11=
EXTT12=
EXTT13=
PLAYORDER=
